<svg id="Capa_1" enable-background="new 0 0 512 512" height="512" viewBox="0 0 512 512" width="512" xmlns="http://www.w3.org/2000/svg"><path d="m422.862 109.16c-41.016-41.016-94.474-65.056-151.862-68.632v-40.528h-30v40.528c-57.388 3.576-110.846 27.617-151.862 68.633-44.57 44.57-69.116 103.83-69.116 166.862s24.546 122.292 69.116 166.862 103.83 69.115 166.862 69.115 122.291-24.546 166.861-69.116 69.116-103.83 69.116-166.862-24.545-122.292-69.115-166.862zm-88.799 101.798h-30.024v-30h30.024zm30.023 30.048v30h-30.023v-30zm30.025-30.048h-30.024v-30h30.024z"/></svg>