<svg id="Capa_1" enable-background="new 0 0 512 512" height="512" viewBox="0 0 512 512" width="512" xmlns="http://www.w3.org/2000/svg"><path d="m256 512c17.614 0 31.893-14.279 31.893-31.893v-104.074l-51.909-20.016z" fill="#e7c994"/><path d="m224.107 480.107c0 17.614 14.279 31.893 31.893 31.893v-155.983l-31.893 20.016z" fill="#f3e5cb"/><path d="m362.309 302c-33.155-33.155-61.036-66.119-106.309-71.054h-20.016l20.016 145.087h106.309z" fill="#ff6c6c"/><path d="m149.691 279.988v96.045h106.309v-145.086c-45.273-4.936-75.092 17.824-106.309 49.041z" fill="#ffa7b3"/><path d="m256 0-20.016 151.109 20.016 139.884c9.361-5.612 18.722-11.223 37.443-11.223 35.315 0 37.338 19.959 68.866 22.23v-195.691c0-58.713-47.596-106.309-106.309-106.309z" fill="#5b362a"/><path d="m256 0c-58.713 0-106.309 47.596-106.309 106.309v173.679c31.526 2.271 33.548 22.23 68.862 22.23 18.724 0 28.085-5.613 37.447-11.225z" fill="#7d4b3b"/></svg>