<svg id="Capa_1" enable-background="new 0 0 512.024 512.024" height="512" viewBox="0 0 512.024 512.024" width="512" xmlns="http://www.w3.org/2000/svg"><path d="m474.552 148.642c0 120.504-98.037 218.541-218.54 218.541s-218.54-98.037-218.54-218.541v-41.271h-37.472v41.271c0 68.383 26.63 132.673 74.984 181.028 48.354 48.354 112.644 74.984 181.027 74.984h.001c68.383 0 132.673-26.63 181.027-74.984s74.984-112.645 74.984-181.028v-41.271h-37.472v41.271z"/><path d="m256.012 337.182c103.961 0 188.54-84.579 188.54-188.541v-41.271h-377.08v41.271c0 103.962 84.579 188.541 188.54 188.541zm110.692-192.286h33.763v30h-33.763zm-42.524 67.526h33.763v30h-33.763zm-42.525-67.526h33.763v30h-33.763zm-42.524 67.526h33.763v30h-33.763zm-42.525-67.526h33.763v30h-33.763zm-42.524 67.526h33.763v30h-33.763zm-42.525-67.526h33.763v30h-33.763z"/></svg>