<svg id="Capa_1" enable-background="new 0 0 512 512" height="512" viewBox="0 0 512 512" width="512" xmlns="http://www.w3.org/2000/svg"><path d="m0 95.48v65.04c0 68.38 26.629 132.667 74.98 181.019 48.353 48.353 112.64 74.981 181.02 74.981s132.667-26.628 181.02-74.981c48.351-48.351 74.98-112.639 74.98-181.019v-65.04zm90 30h332v35.04c0 91.533-74.467 166-166 166s-166-74.467-166-166zm392 35.04c0 60.367-23.508 117.121-66.194 159.806-42.686 42.686-99.439 66.194-159.806 66.194s-117.12-23.508-159.806-66.194c-42.686-42.685-66.194-99.439-66.194-159.806v-35.04h30v35.04c0 108.075 87.925 196 196 196s196-87.925 196-196v-35.04h30z"/><path d="m127.542 155.528h30.024v30h-30.024z"/><path d="m203.173 155.528h30.024v30h-30.024z"/><path d="m165.357 215.576h30.024v30h-30.024z"/><path d="m240.988 215.576h30.024v30h-30.024z"/><path d="m316.619 215.576h30.024v30h-30.024z"/><path d="m278.803 155.528h30.024v30h-30.024z"/><path d="m354.434 155.528h30.024v30h-30.024z"/></svg>