<svg id="Capa_1" enable-background="new 0 0 512 512" height="512" viewBox="0 0 512 512" width="512" xmlns="http://www.w3.org/2000/svg"><path d="m321.341 75c-17.274 0-34.127 2.68-50.341 7.971v-5.971c0-25.916 21.084-47 47-47v-30c-42.458 0-77 34.542-77 77v5.971c-16.214-5.291-33.067-7.971-50.341-7.971-92.626 0-167.983 77.508-167.983 172.779 0 50.714 18.043 115.355 45.966 164.679 16.688 29.479 36.246 52.947 58.129 69.752 25.739 19.767 54.033 29.79 84.095 29.79 13.948 0 28.962-1.228 45.133-9.243 16.171 8.015 31.185 9.243 45.133 9.243 30.062 0 58.356-10.023 84.095-29.79 21.883-16.806 41.441-40.274 58.129-69.752 27.923-49.324 45.966-113.964 45.966-164.679.002-95.271-75.355-172.779-167.981-172.779zm-20.317 203.488v30.024h-30v-30.024zm-60.048 30.024h-30v-30.024h30z"/></svg>