<svg id="Capa_1" enable-background="new 0 0 512 512" height="512" viewBox="0 0 512 512" width="512" xmlns="http://www.w3.org/2000/svg"><path d="m489.726 22.274-282.481 170.306-184.971 297.146c21.938 21.938 58.778 21.958 88.9 2.263 91.296 43.016 216.446 15.959 306.61-74.205s117.221-215.315 74.205-306.61c19.695-30.122 19.674-66.962-2.263-88.9z" fill="#ffda44"/><path d="m400.826 20.011c-91.296-43.016-216.446-15.959-306.61 74.205s-117.221 215.314-74.205 306.61c-19.696 30.122-19.675 66.963 2.263 88.9l467.452-467.452c-21.938-21.937-58.778-21.958-88.9-2.263z" fill="#ffeb99"/><g fill="#ff9f22"><path d="m402.706 241.006h31.894v30h-31.894z"/><path d="m370.814 304.792h31.893v30h-31.893z"/></g></svg>