<svg id="Capa_1" enable-background="new 0 0 512 512" height="512" viewBox="0 0 512 512" width="512" xmlns="http://www.w3.org/2000/svg"><path d="m235.984 121.439 20.016 289.138c141.385 0 256-114.615 256-256v-53.155h-33.734z" fill="#00cc76"/><path d="m0 101.423v53.155c0 141.385 114.615 256 256 256v-289.139l-222.266-20.016z" fill="#a5e887"/><path d="m256 101.423-20.016 115.449 20.016 159.971c122.558 0 222.266-99.708 222.266-222.266v-53.154z" fill="#e50058"/><path d="m33.734 101.423v53.154c0 122.558 99.708 222.266 222.266 222.266v-275.42z" fill="#ff6c6c"/><path d="m119.547 150.208h31.893v30h-31.893z" fill="#07485e"/><path d="m199.885 150.208h31.893v30h-31.893z" fill="#07485e"/><path d="m159.716 213.994h31.893v30h-31.893z" fill="#07485e"/><g fill="#04303e"><path d="m240.054 213.994h31.893v30h-31.893z"/><path d="m320.392 213.994h31.893v30h-31.893z"/><path d="m280.223 150.208h31.893v30h-31.893z"/><path d="m360.561 150.208h31.893v30h-31.893z"/></g></svg>